<?xml version="1.0" encoding="UTF-8"?>
<svg id="Layer_2" data-name="Layer 2" xmlns="http://www.w3.org/2000/svg" viewBox="0 0 352.83 324.74">
  <defs>
    <style>
      .cls-1 {
        fill: #d00728;
      }

      .cls-2 {
        fill: #ce0827;
      }

      .cls-3 {
        fill: #16347a;
      }

      .cls-4 {
        fill: #f9f7f7;
      }

      .cls-5 {
        fill: #153175;
      }

      .cls-6 {
        fill: #d00a29;
      }

      .cls-7 {
        fill: #e8ecf3;
      }

      .cls-8 {
        fill: #ce0626;
      }

      .cls-9 {
        fill: #e8bbc4;
      }

      .cls-10 {
        fill: #fdfdfd;
      }
    </style>
  </defs>
  <g id="Layer_2-2" data-name="Layer 2">
    <path class="cls-4" d="M49.76,5.56c0-2.77,1.19-2.77,3.46-3.04C87.64-1.63,123.48.59,158.31.61c31.3.02,63.66-.49,94.9-.08,3.82.05,9.48,2.8,13.08,2.56,1.79-.12,4.74-1.95,7.23-2.28,15.25-2.01,42.13,3.09,54.27,13.22,1.36,1.13,14.68,16.76,15.19,17.81,1.8,3.73,8.34,27.81,8.78,32.22.58,5.88-1.07,11.89-.91,16.9,1.65,51.25.99,102.78,1.96,154.05.36,19.27-1.8,55.34-17.57,68.51-9.87,8.24-21.26,16.02-34.1,17.9-31.05,4.54-63.5,3.01-94.83,3.17-32.84.17-65.17.15-98.08-.09-26.61-.19-54.95,3.24-78.78-11.13C11.42,302.51-1,273.85.06,253.16c.13-2.6,2.53-2.05,2.76-4.04.95-8.04-1.42-13.1-2.12-20-1.31-12.77,1.38-25.21,2.05-37.55,2.87-2.98-1.38-9.04,3-11,64.32,0,128.68.05,193,0,48.65-.04,97.35.03,146,0,.73-.01.88-.35,1-1,.94-5-.03-15.24,0-21,.05-8.81.23-17.72.03-26.54-.04-1.9.47-3.89-1.03-5.46.24-6.3-.14-12.69,0-19,.18-8.4.21-16.51,0-25-.18-7.3.75-16,0-23-.04-.33.04-.67,0-1-.07-.59-.91-1.42-1-2,1.77-1.3,1.13-4.44.77-6.27-.44-2.24-1.61-6.29-2.27-8.72-.39-1.42-1.25-6.77-3.49-6.01-.18-.53.18-1.48,0-2-.14-.39-.88-.71-1-1-7.83-19.21-29.18-26.75-48.46-28.04-28.63-1.92-61.4.14-90.54.04-43.9-.14-91-2.07-134.54-.04-4.17.19-10.47.56-14.46,1.04ZM345.76,203.56v-21h-1v21h1ZM4.76,205.56c-1.38.11-.92,1.47-1.04,2.45-.88,7.06.9,15.03,1.04,21.55.17,7.98-.1,16.02,0,24,.08,6.66-.03,13,2.68,19.82,1.42,3.58,3.19,2.96,3.32,3.18.23.39-.31,2.87.25,4.21,2.81,6.8,9.33,13.02,14.75,17.79.18.16.23,1.38,1,2,1.46,1.18,2.91,1.32,4,2,8.98,5.59,18.85,9.02,29.46,10.04,75.67-.79,151.39.92,227.05-.02,1.69-.02,4.45.64,5.49-1.02.33,0,.67.01,1,0,1.76-.06,3.54.46,5-1,11.26-1.04,16.39-4.72,25-11,.37-.27,2.03.55,2.01-.5,0-.89-1.22-.45-2.01-.5-7.63-.49-16.79-.21-24.54-.04-85.1,1.9-169.42.37-253.96-.04-5.95-.03-9.64.9-16.5.08-.98-.12-2.02.08-3,0,.5-5.55,6.96-1.89,10.36-2.05,19.23-.9,39.52-4.63,59.15-2.96,3.48.3,5.96,2.09,10,2.09,12.88.01,23.66-3,37.91-2.01,20.87,1.45,38.51-1.33,58.13-.13,26.74,1.64,54.04,3.28,80.97,3.12,11.55-.07,24.1-3.5,36.01-2.11,2.95.35,5.54,2.65,8.47,2.03.57,1.88,3.69-2.08,4.03-2.48,4.79-5.64,8.59-11.44,10.97-18.52,3.4-10.09,2.13-12.57,2-22-.11-8.25.53-16.03,1-24,0-.1.78-.56.84-1.45.46-7.43-.03-15.08.17-22.56-10.75-1.63-21.23-.06-32.01,0-74.96.43-149.85-.06-224.46.05-28.18.04-56.37-.13-84.54-.05Z"/>
    <path class="cls-5" d="M198.76,4.56v1c-8.31-2.56-6.86,8.31-9.1,9.93-.77.56-5.22-1.89-9.19.08-.23.11-3.54,3.41-3.61,3.65-.48,1.55,1.28,3.57-.09,4.34-1.09-1.53-.27-3.71-2.98-3-.24,1.23-.61,3.16-1.48,4.02-2.16,2.15-6.13-.77-5.54,2.97-1.51-.77-3.58-.84-5.36-2.14-5.78-4.25-4.4-8.21-11.64.14-1.91.04-3.92.48-5.53-.98-1.3-1.17-.66-4.66-2.96-4.03-.85.23-1.88,7.39-7.51,5.01-.86,2.83,3.4,3.44,3.9,4.14.46.64-1.5,4.37-.91,5.85-7.21,1.32-4.06-1.62-5.77-6.74-1.33-3.99-5.7-9.96-10.48-9.1s-3.17,2.52-10.75,1.84c-.4-.04-1.2-1.13-2.02-.55-2.42,1.72-.38,6.28-6.98,4.56,1.45,4.08,4.56,4.99,2,9.99-.47.13-.99,1.09-2.44,1.08-1.53,0-8.05-3.05-9.04-4.1-1.46-1.53-1.36-5.49-3.51-6.55-1.47-.72-3.46.79-5,.56-.44-.07-4.76-1.37-4.98-1.51-1.34-.82-2.09-6.44-4.01-4.49-1.48,1.5,1.69,6.9-7.01,5.01-.6,2.84,3.38,2.8,3.89,4.65.4,1.44-1.06,3.69-.9,5.35-4.36,1.27-7.05-.34-8.38.06-1.95.58-1.44,3.79-1.62,3.94-.21.18-2.03-.48-2.74.2-1.33,1.26.06,5.28-6.26,3.8-.34-.24-3.6.12-4-1.52-.35-1.44,2.92-3.4,3.55-5.43,1.31-4.19,1.59-8.52-3.55-7.05v4.99c-1.58-6,.08-4.07,1.99-9-5.35,1.78-5.65-3.01-7.51-4-2.12-1.13-1.79,3.32-2.63,3.86-1.7,1.09-6.52-1.78-5.86,2.14-.15-.15-1.52,0-2.47-.99-1.14-1.19-1.44-3.94-2.95-5.09-5.93-4.48-17.63,11.59-13.65,16.67.58.74,2.08.89,2.81,1.74.49.57.06,2.24.36,2.51.42.39,4.17.4,4.77.02.67-.42.76-5.02,2.64-5.86,3.29-1.47,2.42,1.9,2.5,4-3.52-2.79-3.53,1.65-5.02,2.48-1.81,1.02-4.52-.06-5.98,2.02,4.76,2.4,4.96,3.52,4,8.49-.2,1.04.64,2.23-.6,3.09-2.87,2-5.22-1.59-8.66-.94-5.25.99-5.47,7.87-5.78,12.31-1.4,19.78,1.17,41.14-.01,61.09.29,2.12,6.21,10.12,8.09,10.97,2.96,1.34,6.24-1.49,9.33-.41,2.18.76,1.21,3.19,1.63,3.89-.54,5.15-3.36,5.49-8,5.01,4.29,3.9,5.6,3.63,4.01,9.99,2.02.36,2.63-1.8,4.54-2.02,2.7-.32,6.01,3.99,5.46.03,2.51,5.73,9.15,2.66,9.1-3.48-.02-2.2-1.57-5.11-1.01-6.85.51-1.57,8.81-5.14.91-5.67,1.55-3.29,6.06-.65,8,1,.44.38.16,4.41,4.4,2.92,1.17-.41,4.42-10.72,8.17-3.87,1.01,1.86-.59,2.8-.57,2.95-2.56,3.52-2.64,5.98-8,5-.78,3.06,3.3,2.04,3.79,4.61.26,1.37-1.28,3.65-.78,5.39,4.16-1.82,5.77-3.08,9.98,0-2.51-6.97,1.81-5.75,3.01-10,.39-1.38-.18-3.93.92-5.4.65-.88,2.05-.33,2.77-.89.56-.44.23-1.67.32-1.71,3.97-2.26,5.85-2.26,9,1,.14,4.79-1.56,6.08,4,7,3.09,3.74,5.21,4.73,3,9.99,2.3.12,2.91-2.13,5.49-2.1,2.22.02,3.54,1.95,5.51,2.11,5.2.43,3.28-4.17,5.63-4.94,1.95-.65,4.53,1.68,6.38.52s1.4-5.69,3.62-6.44c2.42-.82,6.63.26,9.37-.13-1.74,1.32-2.79,1.17-5,1.01,3.12,3.73,5.21,4.7,3,9.98,2.31.1,2.88-2.1,5.49-2.1,2.2,0,2.98,1.28,4.51,2.11,3.43,1.84,4.6,3.73,9.63,3.9,10.89.37,1.07-19.95,13.37-13.9-.92.06-2.76-.49-2.99.49,4.55,2.83,4.47,4.09,4.01,9.5.25.35,3.33-2.73,4.66-2.86,2.17-.21,2.86,3.41,5.32,2.85-2.4-5.2.42-5.77,2-9.99-5.85.8-4.43-.41-6.49-4.04-1-1.75.23-2.83-2.51-.97,1.44-3.13,3.13-4.16,4.86-6.63,1.97-2.81-.32-3.42,4.14-5.37,3.69,3.35,5.06,3.63,3,8.99,5.06-1.62,5.89-2.43,11,0-2.23-4.66-1.18-4.45,1.33-6.9,2.81-2.73-2.54-1.85-4.33-3.59-1.18-1.15-1.01-3.43-2.51-4.49-1.6,3.24-1.03,3.79-4.5,5-2.03-5.79,7.28-8.87,7.85-10.65.73-2.31-.52-6.51,1.06-8.71.78-1.08,4.72-1.38,6.35-2.61s1.84-3.71,3.01-4.75c1.95-1.73,4.59-.01,3.53-3.57-.73-2.47-4-4.65-4.6-8.46-1.41-8.89,2.77-11.05,10.79-12.25v101c-64.32.05-128.68,0-193,0h-2c.13-2.98-.08-6.01,0-9,.5-19.38-1.02-38.76-1-58,0-4.99,1-10.46,1-16,0-2.33,0-4.67,0-7,0-1,0-2,0-3,.05-9.64.12-19.36,0-29-.03-2.64.18-5.37,0-8,1.4-.56.8-1.99,1-3C8.41,29.2,18.75,12.79,37.76,7.56c2.04-.56,6.51-.62,9-1,1.15-.17,2.32-.92,3-1,3.99-.48,10.29-.85,14.46-1.04,43.54-2.02,90.64-.1,134.54.04Z"/>
    <path class="cls-4" d="M2.76,113.56c-.02,19.24,1.5,38.62,1,58-3.5.12-2.76.62-3-2.45-1.22-15.46-.53-36.32,0-52.09.06-1.93-1.02-4.01,2-3.45Z"/>
    <path class="cls-4" d="M3.76,58.56c.12,9.64.05,19.36,0,29-3.47.12-2.77.63-3-2.45-.54-7.24-1.3-16.06-.02-23.07.4-2.2.07-3.49,3.02-3.48Z"/>
    <path class="cls-4" d="M37.76,7.56c-.65-4.16,10.15-4.44,9-1-2.49.38-6.96.44-9,1Z"/>
    <path class="cls-4" d="M3.76,90.56c0,2.33,0,4.67,0,7H.76c.46-3.45-1.92-8.11,3-7Z"/>
    <path class="cls-9" d="M5.76,180.56c-4.38,1.96-.13,8.02-3,11,.2-3.68.87-8.05,1-11h2Z"/>
    <path class="cls-4" d="M4.76,47.56c-.2,1.01.4,2.44-1,3-.06-.85-3.07-3.5,1-3Z"/>
    <path class="cls-6" d="M26.76,253.56h317c.13,9.43,1.4,11.91-2,22-.65.21-1.41.9-2,1-.32.06-.67-.02-1,0-1.97.14-4.02-.03-6,0-30.63.39-61.36,0-92,0h-5c-72.98.01-146.02,0-219,0h-6c-.13-.21-1.9.4-3.32-3.18-2.71-6.82-2.6-13.17-2.68-19.82h22Z"/>
    <path class="cls-10" d="M344.76,229.56c-.47,7.97-1.11,15.75-1,24h-6c.02-2.71-1.19-2.8-3.45-3.05-5.85-.65-15.45-.17-21.24.91-1.86.35-3.9-.86-3.31,2.14h-2c.56-3.02-1.53-1.94-3.45-2-3.65-.12-7.44-.14-11.09,0-1.92.08-4.01-1.03-3.45,2h-15c.56-3.02-1.53-1.93-3.46-2-8.04-.29-18.07-.33-26.09,0-1.92.08-4.01-1.03-3.46,2h-16c1.6-3.96-9.26-2.48-9.98-1.97-.22.15.04,1.41-.02,1.97h-9c.56-3.17-1.6-1.77-3.49-1.97-10.05-1.03-12.82-2.17-23.21-.18-1.85.36-3.89-.85-3.3,2.14h-2c.58-2.97-1.44-1.82-3.31-2.14-10.21-1.73-19.06-.24-29.24.13-1.93.07-4.01-1.01-3.45,2h-34c.78-3.18-3.88-2.98-3,0h-4c-.09-.93.54-1.74-.63-2.02-.96-.23-9.96-.29-10.38.02-.16.12.1,1.44,0,2h-17c.6-2.74-2.72-2.83-4.49-3-11.01-1.06-23.95.39-35.06,1-1.92.11-4.01-1.06-3.46,2H4.76c-.1-7.98.17-16.02,0-24h340Z"/>
    <path class="cls-1" d="M313.76,205.56c9.55,2.3,20.18.38,30,1v21H4.76v-22c28.17-.08,56.36.09,84.54.05,74.61-.11,149.5.39,224.46-.05Z"/>
    <path class="cls-10" d="M16.76,276.56c-.66,3.11,5.82,3.07,7.5,3.1,49.34.74,98.25-1.43,148.05-1.15,19.14.11,41.18,2.57,59.95,0,1.86-.25,4.06,1.28,3.5-1.95h5c-.56,3.03,1.53,1.92,3.45,2,27.95,1.1,57.33.93,85.09,0,1.93-.06,4.01,1.02,3.45-2,1.98-.03,4.03.14,6,0l1,1c-.55,4.06-9.73,18.31-13,19-2.93.62-5.52-1.69-8.47-2.03-11.91-1.4-24.46,2.04-36.01,2.11-26.93.15-54.23-1.48-80.97-3.12-19.61-1.2-37.26,1.58-58.13.13-14.26-.99-25.03,2.02-37.91,2.01-4.04,0-6.52-1.8-10-2.09-19.63-1.67-39.92,2.06-59.15,2.96-3.41.16-9.87-3.5-10.36,2.05-5.43-4.77-11.95-10.98-14.75-17.79-.55-1.34-.02-3.83-.25-4.21h6Z"/>
    <path class="cls-2" d="M337.76,32.56v1h-139V4.56c29.14.09,61.91-1.96,90.54-.04,19.28,1.29,40.63,8.84,48.46,28.04Z"/>
    <path class="cls-6" d="M343.76,107.56h1c-.14,6.31.24,12.7,0,19-.09,2.37-.96,4.74-1,6h-145v-25h145Z"/>
    <path class="cls-8" d="M343.76,58.56l1,1c.75,7-.18,15.7,0,23h-146v-24h145Z"/>
    <path class="cls-6" d="M343.76,156.56c.14.03,1.04,1.92,2,2-.03,5.76.94,16,0,21l-1,1c-48.65.03-97.35-.04-146,0v-24h1c38.35.35,77.35.46,115.46-.04,7.12-.09,22.53-1.15,28.54.04Z"/>
    <path class="cls-10" d="M202.76,33.56c1.26,1.65,5.74,1.65,7,0h99c.41,1.56,3.68,1.5,4,0h3c4.05,1.66,11.74,1.69,16,0h7c.18.52-.18,1.47,0,2,2.12,6.21,3.98,14.5,5,21,.09.58.93,1.41,1,2h-145l-1-2v-10c1.58-.66,1.58-4.34,0-5v-7l2-1h2Z"/>
    <path class="cls-8" d="M323.76,298.56v1c-8.61,6.28-13.74,9.96-25,11-1.58.15-4.14-.68-5,1-.33.01-.67,0-1,0-77.11,1.43-154.4-1.1-231.54.04-10.84-.9-20.7-4.65-30.46-9.04-1.09-.68-2.54-.82-4-2l2-2c6.86.82,10.55-.11,16.5-.08,84.54.41,168.86,1.94,253.96.04,7.76-.17,16.91-.45,24.54.04Z"/>
    <path class="cls-2" d="M313.76,205.56c10.78-.06,21.25-1.64,32.01,0-.2,7.48.3,15.13-.17,22.56-.06.89-.83,1.35-.84,1.45H4.76c-.14-6.52-1.92-14.49-1.04-21.55.12-.98-.34-2.34,1.04-2.45v22h339v-21c-9.82-.62-20.45,1.3-30-1Z"/>
    <path class="cls-2" d="M292.76,311.56c-1.04,1.66-3.79,1-5.49,1.02-75.66.94-151.38-.77-227.05.02-10.61-1.02-20.48-4.45-29.46-10.04,9.76,4.39,19.62,8.13,30.46,9.04,77.14-1.14,154.43,1.39,231.54-.04Z"/>
    <path class="cls-9" d="M345.76,158.56c-.96-.08-1.86-1.97-2-2,.18-7.96-.24-16.09,0-24,.04-1.26.91-3.63,1-6,1.5,1.57.98,3.56,1.03,5.46.2,8.82.02,17.73-.03,26.54Z"/>
    <path class="cls-9" d="M344.76,107.56h-1v-25h1c.21,8.49.18,16.6,0,25Z"/>
    <path class="cls-9" d="M338.76,35.56c2.24-.76,3.11,4.59,3.49,6.01.66,2.43,1.83,6.48,2.27,8.72.36,1.83,1.01,4.97-.77,6.27-1.02-6.5-2.88-14.79-5-21Z"/>
    <rect class="cls-9" x="344.76" y="182.56" width="1" height="21"/>
    <path class="cls-2" d="M298.76,310.56c-1.46,1.46-3.24.94-5,1,.86-1.68,3.42-.85,5-1Z"/>
    <path class="cls-9" d="M28.76,298.56l-2,2c-.77-.62-.82-1.84-1-2,.98.08,2.02-.12,3,0Z"/>
    <path class="cls-9" d="M326.76,296.56c3.27-.69,12.45-14.94,13-19v-1c.59-.1,1.35-.79,2-1-2.38,7.08-6.19,12.88-10.97,18.52-.33.39-3.45,4.36-4.03,2.48Z"/>
    <path class="cls-9" d="M323.76,298.56c.79.05,2.01-.39,2.01.5.02,1.05-1.64.23-2.01.5v-1Z"/>
    <path class="cls-9" d="M344.76,59.56l-1-1h1c.04.33-.04.67,0,1Z"/>
    <path class="cls-9" d="M338.76,33.56h-1v-1c.12.29.86.61,1,1Z"/>
    <path class="cls-9" d="M344.76,180.56l1-1c-.12.65-.27.99-1,1Z"/>
    <path class="cls-3" d="M198.76,5.56v24c-5.4-1.08-4.69,5.81-6.66,7.09s-7.69,1.13-8.93,2.87.59,3.02.59,3.54v15.5c0,.5-8.44,2.85-7.01-3l-.99,1c-3.19-1.27-1.84,4-3.13,4.87s-4.9-1.05-5.87,1.13c-.56,1.25-.14,2.73-1.55,4.95-3.23,5.11-8.12,2.27-8.45,8.05-1.66,2.32-.43,3.85-6,3-.67,3.11,3.12,1.94,3.89,4.71.52,1.9-.86,3.48-.88,5.28,2.3.6,3.07-2.55,4.64-2.85,1.78-.35,3.32,2.34,5.35,1.85-.19-2.67.93-6.49,2-9s2.97-4.1,4-7c5.13-3.83,4.83-2.17,9.99,0-.07-1.65.12-3.35,0-5,1.11-.34,1.45-1.12,2-2,.39-.62.63-1.36,1-2,1.75.03,3.6-1.13,6.34-.93s8.53.46,9.66,2.93v15c-8.02,1.2-12.2,3.36-10.79,12.25.6,3.81,3.87,5.99,4.6,8.46,1.05,3.56-1.58,1.84-3.53,3.57-1.17,1.04-1.42,3.56-3.01,4.75s-5.57,1.53-6.35,2.61c-1.59,2.19-.34,6.39-1.06,8.71-.56,1.78-9.88,4.87-7.85,10.65-1.14.4-2.36.29-4,1-4.46,1.94-2.16,2.56-4.14,5.37-1.74,2.47-3.42,3.5-4.86,6.63-1.78,3.87,1.09,4.66-4,5-12.3-6.04-2.48,14.27-13.37,13.9-5.03-.17-6.2-2.06-9.63-3.9-.11-5.96-2.29-5.23,3-8,.46-.24,2.07.55,2.01-.51.32-2.16-.43-1.31-2.01-1.49.83-2.81,3.8-4.29,4-7,1.95.43,3.64-2.74,4.48-2.76.56-.01,3.45,2.86,5.52,1.76-3.17-6.4,2.06-5.37,2.01-9.99-5.7,1.36-4.59-1.63-5.01-2-.69-4.35,3.74.1,6.99-1.46,1.86-.89,1.84-3.4,2.01-3.54.24-.2,5.18-3.04,5.49-3.04,1.75,0,2.51,2.53,4.51,2.04-.66-3.45,1.36-6.15,3-9,.72-1.24,6.04-6.66,5-8,5.69-4.29,3.99.51,9,.99-2.4-5.2.41-5.77,2-9.99-6.06,3.08-5.96-7.95-9.77-3.76-2.68,2.94,1.64,3.01-5.22,3.75-5.86.63-2.1,3.41-5.95,7.55-4.19,4.51-11.16,7.8-14.05.45-.57-1.46-1.49-2.58-.93-4.39s3.79-.71,2.92-3.61c-5.97,1.16-4.52-1.39-7.5-4.99-3.03,4.48-2.03,5.94-8.5,4.99.1,1.94,3.86,2.64,4.07,3.68.38,1.91-1.4,4.25-1.06,6.31,3.65-1.96,6.33-5.36,8.99,0-2.48,3.97,3.2,13.84-.25,16.76-.96.81-3.87.56-4.63,1.4-.45.5.03,1.53-.12,1.84-.14.27.14.76,0,1-.26.44-1.85,2.91-2,3-.13.08-1.92.06-2,0-.1-.08.38-1.79-.61-2.04-1.13-.28-3.22-.08-3.94.98-.83,1.22-4.1,16,.55,16.56l-3.99,1.49c-1.67-1.33-1.22-4.84-3.98-4-.17,1.68-.62,2.94-2.02,4-2.73.4-6.95-.68-9.37.13-2.22.75-1.77,5.28-3.62,6.44s-4.43-1.17-6.38-.52c-2.35.78-.43,5.38-5.63,4.94.14-1.99-1.4-4.51-1.07-6.32.23-1.28,3.85-1.06,3.07-3.68-6.76,1.73-4.05-3.21-8.49-5.02-2.48,4.41.38,4.51-4.51,5.01l-.79-.69-1.21.69c-.33-.03-.68.05-1,0-5.56-.92-3.86-2.21-4-7-.03-1.11-.18-5.69-.06-6.31.25-1.29,3.83-1.08,3.06-3.69-6.05,1.02-4.61-1.27-6.58-3.92-2.75-3.7-2.43,1.55-3.64,2.69-1.37,1.3-5.18.56-5.78,2.22-1.24,3.47,1.61,4.21,3,6,.24.31-.35,2.12,1,2-.08.05.24,1.28-.32,1.71-.72.56-2.11.01-2.77.89-1.09,1.47-.53,4.02-.92,5.4-.67-.01-1.33.02-2,0l-3-1c-.77-.57-2.9-3.24-3-4-.02-.15,1.58-1.09.57-2.95-3.75-6.86-7,3.45-8.17,3.87-4.24,1.49-3.96-2.54-4.4-2.92-1.7-5.72-2.1-6.39,3-9,4.11-2.1,12.94-2.87,5-9,2.95-4.78,5.4-2.11,8.99,0,.33-2.07-1.43-4.39-1.06-6.32.24-1.28,3.85-1.06,3.07-3.68-6.43,1.45-4.26-2.31-7.98-5-.49,4.47-2.69,5.61-7.01,5-.72,2.44,1.08,1.9,2,3-1.75,1.09-4.24,5.45-5.7,5.88-3.16.94-7.74-3.33-10.37-1.46-.45.32-2.85,9.61-2.93,10.58-.23,2.92,2.25,1.86,2.85,3.62,1.16,3.39-1.81,5.11,2.15,5.38,7.91.53-.4,4.11-.91,5.67-.56,1.74.99,4.65,1.01,6.85.05,6.15-6.6,9.21-9.1,3.48-.2-.45.02-2.16,0-3,9.01-5.84,4.52-4.65-3-7-1.57-2.18-2.88-2.8-3-3-.42-.7.55-3.12-1.63-3.89-3.1-1.08-6.38,1.74-9.33.41-1.88-.85-7.8-8.85-8.09-10.97,1.18-19.96-1.39-41.32.01-61.09.31-4.44.53-11.32,5.78-12.31,3.44-.65,5.79,2.94,8.66.94,1.23-.86.4-2.05.6-3.09,4.02-1.99,6.01-2.92,9.99,0-2.73-7.33,1.26-4.79,3-9.99-5.09-.4-5.81,1.91-6-3.01-.08-2.09.79-5.47-2.5-4-1.88.84-1.97,5.44-2.64,5.86-.6.38-4.34.36-4.77-.02-.3-.27.13-1.94-.36-2.51-.73-.85-2.23-1-2.81-1.74-3.98-5.08,7.72-21.15,13.65-16.67,1.52,1.15,1.81,3.9,2.95,5.09.95.99,2.32.84,2.47.99.69.69,1.31,1.27,2,2,.58.61.82,1.75,2,2,.12.78-.45,2.48-1,3-.29.27-2.46.15-3,1.5-1.57,3.98,5.35,3.4,5-.5.33-.02.96.07,1,0,3.44,0,4.21,3.45,9,1.99.56-1.85-.9-1.78-1-1.99-.11-.26.09-.67,0-1v-4.99c5.14-1.47,4.87,2.86,3.56,7.05-.63,2.03-3.9,3.98-3.55,5.43.39,1.64,3.66,1.28,4,1.52,1.22.87,4.09,7.99,3.01,10,4.73-2.37,5.26-2.36,9.99,0,.37-1.74-1.33-3.82-.9-5.34.52-1.84,4.5-1.81,3.9-4.65-4.45.11-6.57,1.2-7-4.01.17-.15-.34-3.36,1.62-3.94,1.33-.4,4.03,1.2,8.38-.06,1.88-.55,3.74-2.2,5.44-2.06,1.86.16,2.53,2.46,4.55,2.05-1.35-5.15,1.58-5.4,3.01-9,1.54.23,3.53-1.29,5-.56,2.16,1.06,2.06,5.01,3.51,6.55.99,1.04,7.51,4.09,9.04,4.1,1.45,0,1.97-.95,2.44-1.08,5.06-1.37,5.64-2.67,11,0-3.14-4.42,3.06-7.05,2-9.99-.64-1.78-3.35-.84-5-1-.6-.65-.76-2.1-1-3,7.59.68,5.78-.94,10.75-1.84s9.15,5.11,10.48,9.1c1.71,5.12-1.45,8.06,5.77,6.74,2.06-.38,3.5-2.22,5.44-2.06s2.53,2.46,4.55,2.05c-1.91-7.74-.07-4.63,2.08-7.43.73-.95.73-2.35.92-2.57,7.24-8.35,5.86-4.39,11.64-.14,1.78,1.31,3.85,1.37,5.36,2.14,4.63,2.37,3.92,2.71,3,7.99,4.16-1.81,5.77-3.08,9.99,0,.55-1.69-1.12-4.18-.83-5.41.42-1.74,4.57-1.87,3.83-4.58-3.16.14-4.18.56-6-2,1.37-.77-.38-2.79.09-4.34.08-.25,3.38-3.54,3.61-3.65,3.98-1.97,8.42.48,9.19-.08,2.24-1.62.79-12.49,9.1-9.93ZM83.76,43.56c1.34,4.09,5.76,3.08,3.01,9.99,4.17-1.81,5.77-3.08,9.98,0,.31-1.93-.46-4.56-.01-6.3.36-1.41,3.76-1.08,3.02-3.7-5.8.75-5.24-.88-7-5.01-1.42-3.34-1.18-6.27-7.01-3.5-3.31,1.58-2.91,5.71-1.99,8.5ZM126.74,38.56c-2.09-1.55-3.82,7.94-8.98,5,1.33,3.77,4.21,5.22,3,9.99,4.73-2.37,5.26-2.36,9.99,0-1.93-5.29.15-5.69,2-9.99-5.37,1.74-5.38-4.54-6.01-5ZM159.75,38.56c-1.94-1.97-2.72,3.78-3.97,4.52-1.44.85-3.41.43-5.02.48-.71,3.1,3.22,1.99,3.87,4.68.39,1.62-1.19,3.54-.86,5.31,2.35.69,3-2.62,4.63-2.89,1.33-.22,4.97,3.41,5.35,2.9.49-1.75-1.03-3.95-.76-5.39.32-1.73,3.36-2.28,2.77-4.61-7.3,1.89-4.77-3.75-6.01-5.01ZM48.75,61.57c-5.51.91-5.16-1.16-7.5-4.98-2.38,4.63-2.67,5.76-8.5,4.98-.53,2.9,3.29,2.73,3.91,4.67.57,1.81-.93,3.55-.91,5.32,2.45.14,3.81-2.3,6.45-2.02,1.89.2,2.52,2.4,4.54,2.02-1.93-5.29.16-5.69,2-9.99ZM82.75,61.57c-4.32.61-6.52-.54-7.01-5-3.84,3.53-1.91,6.33-8.98,5-.72,3.1,3.21,1.99,3.86,4.68.39,1.62-1.19,3.53-.86,5.31,2.02.38,2.65-1.82,4.54-2.03,2.64-.28,4,2.17,6.46,2.02-2.99-4.77.8-6.05,2-9.99ZM109.74,56.56c-2.06-1.95-2.56,3.68-3.97,4.52s-3.41.44-5.01.48c-.75,2.61,2.65,2.29,3.02,3.7.45,1.74-.32,4.37-.01,6.3,4.44-3.78,5.46-3.05,9.98,0,.49-1.75-1.03-3.95-.76-5.39.32-1.73,3.36-2.28,2.77-4.61-5.67,1.5-4.96-4.01-6.01-5ZM142.74,56.56c-2.26-2.22-2.46,4.44-3.12,4.87-.97.63-3.52-.09-4.86.14,1.84,4.3,3.93,4.7,2,9.99,2.35.69,3-2.62,4.63-2.89,1.28-.21,5.01,3.4,5.35,2.9-1.2-4.78,1.67-6.22,3.01-9.99-6.75,1.77-5.65-3.66-7.01-5ZM60.91,78.4c-.64-.41-.99-4.73-3.14-4.84-.49,4.46-2.69,5.61-7.01,5,1.33,3.77,4.21,5.22,3,9.99,4.73-2.37,5.26-2.36,9.99,0-.02-1.8-1.41-3.38-.88-5.28.77-2.77,4.56-1.59,3.88-4.71-1.58-.29-4.69.57-5.84-.16ZM96.75,88.56c-.34-3.67-.19-6.29,2.99-8.5-3.75-2.26-6.16-1.44-7.48-6.5-1.75.82-2.05,4.44-2.67,4.83-1.3.81-5.24-.75-5.83,2.16,5.21.95,3.74,3.99,3,8.01,4.17-1.24,5.88-3.23,9.99,0ZM126.74,73.56c-2.06-1.95-2.55,3.68-3.97,4.52s-3.41.44-5.01.48c1.69,5.16,5.75,2.65,3,9.99,4.16-1.82,5.77-3.08,9.98,0,.55-1.69-1.12-4.18-.83-5.41.42-1.74,4.57-1.87,3.83-4.58-6.71,1.82-5.71-3.77-7.01-5ZM25.74,74.56c-2.36-1.84-2.43,3.43-3.14,3.86-1.24.75-4.6-.76-5.83,1.64,3.49,2.92,4.39,3.95,2.98,8.49,4.62-1.95,5.36-1.95,9.99,0-1.02-5.56-1.29-5.45,3.01-8.99-6.36,1.7-6.25-4.41-7.01-5.01ZM43.9,96.41c-.56-.35-.98-4.17-2.65-4.83-2.38,4.64-2.67,5.75-8.5,4.99,4.15,3.92,5.08,3.83,3,9.98,2.27.42,3.47-2.62,5.49-2.64,1.65-.02,3.73,2.54,5.49,2.16-1.07-1.41-1.4-4.19-1.01-5.8.34-1.39,3.79-1.09,3.03-3.7-1.38-.21-3.8.5-4.85-.16ZM82.76,96.57c-4.32.61-6.52-.54-7.01-5-3.17,3.06-2,6.19-7.98,5-.78,2.62,2.83,2.4,3.07,3.68.37,1.93-1.4,4.25-1.06,6.32,5.33-4.15,5.64-2.38,10.99,0-.11-2.11-1.65-4.16-.91-6.38.63-1.88,3.85-.78,2.91-3.61ZM109.74,91.56c-2.06-1.95-2.55,3.68-3.97,4.52s-3.41.43-5.02.48c-.78,3.07,3.3,2.03,3.78,4.6.26,1.39-1.28,3.65-.77,5.39,4.47-3.2,5.05-3.05,9.99-1.01-1.93-4.89.69-5.03,2-8.99-5.67,1.5-4.96-4.01-6.01-5ZM25.74,108.56c-2.06-1.95-2.56,3.68-3.97,4.52s-3.41.43-5.02.49c3.4,3.84,4.74,4.57,3.01,9.99,5.07-2.08,4.93-3.91,9.98,0,.55-1.69-1.12-4.18-.83-5.41.42-1.74,4.57-1.87,3.83-4.58-6.71,1.82-5.71-3.77-7.01-5ZM92.74,108.56c-2.26-2.22-2.46,4.44-3.12,4.87-.97.63-3.52-.09-4.86.14-.78,2.62,2.83,2.4,3.07,3.68.36,1.9-1.4,4.26-1.07,6.31,2.55.45,3.19-3.03,5.49-3.03s2.95,3.48,5.5,3.03c-.11-2.11-1.65-4.16-.91-6.38.63-1.88,3.85-.78,2.91-3.61-6.76,1.77-5.65-3.66-7.01-5ZM126.74,108.56c-2.06-1.95-2.56,3.68-3.97,4.52s-3.41.43-5.02.49c.1,1.94,3.87,2.64,4.07,3.68.38,1.91-1.4,4.25-1.06,6.31.34.43,4.09-3.01,5.5-3.01,1.78,0,2.49,2.48,4.49,2.01-2.51-6.72,1.49-5.27,3-7.01,2.3-2.65-3.97-1.41-5.53-2.95-1.05-1.04-1.24-3.8-1.48-4.02ZM103.76,141.56c.13.05.14.96.5,1.01.79-4.64,9.13-1.63,9.49-2.02.58-.62-.92-3.77-.45-5.05.31-.83,4.04-3.37,3.45-3.94-6.12-.07-4.88-1.25-6.91-4.4s-2.42,2.36-3.3,3.17c-.69.63-4.08,1.38-5.79,2.22-.45.22-1.42,0-2.01.48-3.42,2.74,2.46,7.52,5.01,8.52Z"/>
    <polygon class="cls-10" points="343.76 82.56 343.76 107.56 199.76 107.56 198.76 105.56 198.76 82.56 343.76 82.56"/>
    <path class="cls-10" d="M343.76,132.56c-.24,7.91.18,16.04,0,24-6.01-1.19-21.42-.14-28.54-.04-38.11.5-77.11.4-115.46.04l-1-1v-9c1.68-1.58,1.67-6.46,0-8v-6h145Z"/>
    <path class="cls-7" d="M109.76,21.56c.24.9.4,2.35,1,3,1.47,1.57,3,1.03,5,1,1.06,2.95-5.14,5.57-2,9.99-5.35-2.66-5.93-1.37-11,0,2.57-5-.54-5.92-2-9.99,6.59,1.73,4.56-2.84,6.98-4.56.82-.58,1.62.52,2.02.55Z"/>
    <path class="cls-7" d="M136.76,35.56c-.6-1.49,1.36-5.21.91-5.85-.5-.7-4.77-1.31-3.9-4.14,5.63,2.38,6.66-4.78,7.51-5.01,2.29-.63,1.66,2.86,2.96,4.03,1.61,1.45,3.62,1.01,5.53.98-.19.22-.2,1.62-.92,2.57-2.16,2.8-3.99-.31-2.08,7.43-2.02.4-2.7-1.89-4.55-2.05s-3.38,1.68-5.44,2.06Z"/>
    <path class="cls-7" d="M32.76,27.56c-.66-3.92,4.16-1.05,5.86-2.14.84-.54.51-4.98,2.63-3.86,1.86.99,2.16,5.78,7.51,4-1.91,4.92-3.57,2.99-2,9,.09.33-.11.74,0,1-2.76.38-4.81-2.17-7.49-2.01-1.1.07-.2,1.47-.51,2.01-.04.07-.67-.02-1,0-.82.04-1.71-.11-2-1,.55-.52,1.12-2.22,1-3-.15-.98-1.11-1.65-2-2-.69-.73-1.31-1.31-2-2Z"/>
    <path class="cls-7" d="M69.76,35.56c-.16-1.66,1.3-3.91.9-5.35-.52-1.85-4.49-1.81-3.89-4.65,8.7,1.89,5.53-3.51,7.01-5.01,1.92-1.95,2.67,3.67,4.01,4.49.22.14,4.54,1.44,4.98,1.51-1.42,3.6-4.36,3.84-3.01,9-2.02.4-2.69-1.89-4.55-2.05-1.7-.14-3.56,1.51-5.44,2.06Z"/>
    <path class="cls-7" d="M23.76,143.56c.12.2,1.43.82,3,3,1.84,2.55,2.81,2.16,6,2,.62,2.62-2.55,2.67-3.57,4.03-.5.66.57.91.58.97.02.84-.2,2.55,0,3,.56,3.96-2.76-.34-5.46-.03-1.91.22-2.52,2.39-4.54,2.02,1.59-6.36.29-6.08-4.01-9.99,4.64.48,7.46.14,8-5.01Z"/>
    <path class="cls-7" d="M86.76,148.56c4.89-.5,2.03-.6,4.51-5.01,4.44,1.81,1.72,6.74,8.49,5.02.78,2.62-2.84,2.4-3.07,3.68-.32,1.8,1.21,4.33,1.07,6.32-1.97-.16-3.28-2.09-5.51-2.11-2.58-.03-3.19,2.23-5.49,2.1,2.21-5.27.09-6.26-3-9.99.32.05.67-.03,1,0,.62.05,1.38.06,2,0Z"/>
    <path class="cls-7" d="M166.76,27.56c-.59-3.74,3.37-.82,5.54-2.97.87-.86,1.23-2.79,1.48-4.02,2.72-.71,1.9,1.46,2.98,3,1.82,2.56,2.84,2.15,6,2,.74,2.71-3.41,2.84-3.83,4.58-.3,1.23,1.38,3.72.83,5.41-4.21-3.09-5.82-1.82-9.99,0,.91-5.29,1.63-5.63-3-7.99Z"/>
    <path class="cls-7" d="M59.76,39.56c.43,5.2,2.55,4.11,7,4.01.6,2.83-3.38,2.81-3.9,4.65-.43,1.52,1.27,3.6.9,5.34-4.73-2.36-5.26-2.36-9.99,0,1.09-2.01-1.78-9.13-3.01-10,6.32,1.49,4.93-2.54,6.26-3.8.72-.68,2.53-.02,2.74-.2Z"/>
    <path class="cls-7" d="M26.76,40.56c.18,4.91.91,2.61,6,3.01-1.75,5.2-5.74,2.66-3,9.99-3.98-2.92-5.97-1.99-9.99,0,.97-4.97.77-6.09-4-8.49,1.46-2.08,4.16-1,5.98-2.02,1.49-.84,1.5-5.28,5.02-2.48Z"/>
    <path class="cls-7" d="M66.76,132.56c.59-1.66,4.41-.93,5.78-2.22,1.21-1.14.89-6.39,3.64-2.69,1.97,2.65.53,4.94,6.58,3.92.77,2.61-2.81,2.39-3.06,3.69-.12.61.03,5.2.06,6.31-3.15-3.26-5.03-3.26-9-1-1.35.12-.76-1.69-1-2,2.45-2.36-.76-4.64-3-6Z"/>
    <path class="cls-7" d="M61.76,147.56c1.37,1.01,1.23.94,3,1,.67.02,1.33-.01,2,0-1.2,4.25-5.52,3.03-3.01,10-4.21-3.09-5.82-1.82-9.98,0-.5-1.74,1.04-4.02.78-5.39-.48-2.57-4.57-1.54-3.79-4.61,5.36.97,5.44-1.48,8-5,.1.76,2.23,3.43,3,4Z"/>
    <path class="cls-7" d="M122.76,147.56c1.39-1.06,1.84-2.32,2.02-4,2.77-.84,2.31,2.67,3.98,4,2.1,1.67,2.87.75,5,1-.16.52.1,1.37,0,2-5.29,2.77-3.11,2.04-3,8-1.53-.82-2.31-2.11-4.51-2.11-2.61,0-3.18,2.2-5.49,2.1,2.2-5.28.11-6.25-3-9.98,2.21.16,3.26.32,5-1.01Z"/>
    <path class="cls-7" d="M157.76,143.56c2.73-1.87,1.51-.79,2.51.97,2.06,3.63.64,4.84,6.49,4.04-1.58,4.22-4.4,4.79-2,9.99-2.46.56-3.16-3.06-5.32-2.85-1.34.13-4.41,3.21-4.66,2.86.46-5.42.55-6.67-4.01-9.5.24-.98,2.08-.43,2.99-.49,5.09-.34,2.22-1.13,4-5Z"/>
    <path class="cls-7" d="M170.76,130.56c3.46-1.2,2.89-1.75,4.5-5,1.5,1.06,1.33,3.34,2.51,4.49,1.79,1.74,7.13.86,4.33,3.59-2.51,2.45-3.56,2.24-1.33,6.9-5.11-2.43-5.93-1.61-11,0,2.06-5.37.69-5.64-3-8.99,1.64-.71,2.86-.6,4-1Z"/>
    <path class="cls-7" d="M33.76,131.56c1.85.14,3.77.17,5.09-1.43.95-1.15.38-4.47,2.39-3.56,2.92,5.51,2.7,4.48,8.51,5.99-5.1,2.61-4.7,3.28-3,9-1.94-1.65-6.45-4.29-8-1-3.96-.27-.99-1.99-2.15-5.38-.6-1.76-3.08-.7-2.85-3.62Z"/>
    <path class="cls-9" d="M198.76,146.56v-8c1.67,1.54,1.68,6.42,0,8Z"/>
    <polygon class="cls-9" points="199.76 107.56 198.76 107.56 198.76 105.56 199.76 107.56"/>
    <polygon class="cls-9" points="199.76 156.56 198.76 156.56 198.76 155.56 199.76 156.56"/>
    <path class="cls-4" d="M235.76,276.56c.56,3.24-1.64,1.7-3.5,1.95-18.77,2.57-40.81.11-59.95,0-49.79-.28-98.71,1.89-148.05,1.15-1.68-.03-8.16,0-7.5-3.1,72.98,0,146.02.01,219,0Z"/>
    <path class="cls-4" d="M332.76,276.56c.56,3.02-1.53,1.94-3.45,2-27.77.93-57.15,1.1-85.09,0-1.93-.08-4.01,1.03-3.45-2,30.64,0,61.37.39,92,0Z"/>
    <path class="cls-4" d="M26.76,253.56c-.56-3.06,1.53-1.89,3.46-2,11.1-.61,24.05-2.06,35.06-1,1.77.17,5.09.26,4.49,3H26.76Z"/>
    <path class="cls-4" d="M138.76,253.56c-.56-3.02,1.53-1.93,3.45-2,10.18-.37,19.03-1.86,29.24-.13,1.87.32,3.89-.83,3.31,2.14h-36Z"/>
    <path class="cls-4" d="M176.76,253.56c-.59-3,1.45-1.79,3.3-2.14,10.39-2,13.16-.86,23.21.18,1.89.19,4.04-1.21,3.49,1.97h-30Z"/>
    <path class="cls-4" d="M337.76,253.56h-28c-.59-3,1.45-1.79,3.31-2.14,5.79-1.08,15.39-1.56,21.24-.91,2.26.25,3.47.34,3.45,3.05Z"/>
    <path class="cls-4" d="M241.76,253.56c-.56-3.03,1.53-1.92,3.46-2,8.02-.33,18.05-.29,26.09,0,1.93.07,4.01-1.02,3.46,2h-33Z"/>
    <path class="cls-4" d="M289.76,253.56c-.56-3.03,1.53-1.92,3.45-2,3.65-.14,7.44-.12,11.09,0,1.92.06,4.01-1.02,3.45,2h-18Z"/>
    <path class="cls-4" d="M215.76,253.56c.06-.56-.2-1.81.02-1.97.73-.52,11.59-1.99,9.98,1.97h-10Z"/>
    <path class="cls-4" d="M86.76,253.56c.09-.56-.17-1.88,0-2,.42-.31,9.41-.25,10.38-.02,1.17.28.54,1.09.63,2.02h-11Z"/>
    <path class="cls-4" d="M101.76,253.56c-.88-2.98,3.78-3.18,3,0h-3Z"/>
    <path class="cls-4" d="M339.76,277.56l-1-1c.33-.02.68.06,1,0v1Z"/>
    <path class="cls-5" d="M198.76,29.56v35c-1.13-2.47-7.05-2.73-9.66-2.93-2.74-.2-4.59.96-6.34.93-3.51-.07-6.6-2.31-7-6l.99-1c-1.43,5.85,7.01,3.5,7.01,3v-15.5c0-.53-1.8-1.85-.59-3.54s7.04-1.64,8.93-2.87,1.26-8.17,6.66-7.09Z"/>
    <path class="cls-9" d="M331.76,33.56c-4.26,1.69-11.95,1.66-16,0h16Z"/>
    <path class="cls-9" d="M209.76,33.56c-1.26,1.65-5.74,1.65-7,0h7Z"/>
    <path class="cls-9" d="M312.76,33.56c-.32,1.5-3.59,1.56-4,0h4Z"/>
    <polygon class="cls-9" points="200.76 33.56 198.76 34.56 198.76 33.56 200.76 33.56"/>
    <polygon class="cls-9" points="199.76 58.56 198.76 58.56 198.76 56.56 199.76 58.56"/>
    <path class="cls-9" d="M198.76,46.56v-5c1.58.66,1.58,4.34,0,5Z"/>
    <path class="cls-5" d="M167.76,96.56c-.64,2.37,2.87,2.68,3.08,3.68.36,1.7-1.15,3.54-1.14,4.77,0,.83,1.99.47,2.06.55,1.04,1.34-4.28,6.76-5,8-6.31,2.39-5.07-4.99-8.49-5.01-.5,0-2.17,7.17-7.51,5.02,4.86,4.15,4.01,3.66,3,9.99-.17.14-.15,2.65-2.01,3.54-3.25,1.56-7.68-2.89-6.99,1.46-1.07-.95-2.54-1.79-4-2,.16-.31-.32-1.34.12-1.84.76-.84,3.67-.59,4.63-1.4,3.45-2.92-2.23-12.79.25-16.76.09-.15,2.77.43,2-2,2.89,7.35,9.87,4.06,14.05-.45,3.85-4.14.09-6.92,5.95-7.55Z"/>
    <path class="cls-5" d="M52.76,116.56c2.52,3.02-.62,6.18.04,6.95.31.35,1.72-.13,1.96.05,7.94,6.13-.89,6.9-5,9-5.82-1.51-5.59-.48-8.51-5.99-2.01-.91-1.45,2.42-2.39,3.56-1.32,1.6-3.25,1.57-5.09,1.43.08-.97,2.49-10.26,2.93-10.58,2.63-1.88,7.22,2.39,10.37,1.46,1.45-.43,3.94-4.78,5.7-5.88Z"/>
    <path class="cls-7" d="M144.76,128.56c.42.37-.69,3.36,5.01,2,.05,4.62-5.18,3.59-2.01,9.99-2.07,1.1-4.96-1.77-5.52-1.76-.84.02-2.52,3.19-4.48,2.76.02-.25-.72-.96-.68-1.63.1-1.54.97-3.49.75-4.68-.19-1.08-7.76-3.3-1.07-4.68.08.06,1.87.08,2,0,1.46-.25,2.02-1.66,2-3,.14-.24-.14-.73,0-1,1.46.21,2.93,1.05,4,2Z"/>
    <path class="cls-7" d="M48.75,61.57c-1.84,4.3-3.93,4.7-2,9.99-2.02.38-2.65-1.82-4.54-2.02-2.64-.28-4,2.16-6.45,2.02-.02-1.77,1.49-3.51.91-5.32-.62-1.94-4.45-1.76-3.91-4.67,5.83.77,6.12-.35,8.5-4.98,2.33,3.82,1.99,5.9,7.5,4.98Z"/>
    <path class="cls-7" d="M126.74,38.56c.63.47.64,6.74,6.01,5-1.85,4.3-3.93,4.7-2,9.99-4.73-2.36-5.26-2.36-9.99,0,1.21-4.77-1.67-6.22-3-9.99,5.16,2.94,6.89-6.55,8.98-5Z"/>
    <path class="cls-7" d="M100.76,132.56c1.7-.84,5.1-1.59,5.79-2.22.88-.81,1.26-6.33,3.3-3.17s.79,4.33,6.91,4.4c.59.56-3.15,3.11-3.45,3.94-.47,1.27,1.03,4.43.45,5.05-.37.39-8.7-2.62-9.49,2.02-.37-.06-.37-.96-.5-1.01.62-4.46,1.75-6.63-3-9Z"/>
    <path class="cls-7" d="M92.76,38.56c1.76,4.13,1.19,5.75,7,5.01.75,2.61-2.65,2.29-3.02,3.7-.45,1.74.32,4.37.01,6.3-4.21-3.09-5.82-1.82-9.98,0,2.75-6.92-1.67-5.91-3.01-9.99,5.53,1.3,5.43-2.56,9-5Z"/>
    <path class="cls-7" d="M126.74,73.56c1.3,1.23.3,6.82,7.01,5,.74,2.71-3.41,2.84-3.83,4.58-.3,1.23,1.38,3.72.83,5.41-4.21-3.09-5.82-1.82-9.98,0,2.75-7.34-1.31-4.83-3-9.99,1.61-.05,3.58.37,5.01-.48s1.91-6.47,3.97-4.52Z"/>
    <path class="cls-7" d="M82.75,61.57c-1.2,3.93-4.99,5.22-2,9.99-2.45.15-3.82-2.3-6.46-2.02-1.89.2-2.52,2.4-4.54,2.03-.33-1.77,1.25-3.69.86-5.31-.65-2.7-4.59-1.59-3.86-4.68,7.07,1.33,5.14-1.48,8.98-5,.49,4.46,2.69,5.61,7.01,5Z"/>
    <path class="cls-7" d="M167.76,96.56c6.87-.74,2.54-.81,5.22-3.75,3.82-4.19,3.71,6.84,9.77,3.76-1.59,4.22-4.4,4.79-2,9.99-5.01-.48-3.3-5.28-9-.99-.07-.08-2.05.27-2.06-.55-.01-1.23,1.5-3.07,1.14-4.77-.21-1-3.72-1.31-3.08-3.68Z"/>
    <path class="cls-7" d="M153.76,123.56c1.01-6.33,1.86-5.84-3-9.99,5.34,2.15,7.01-5.02,7.51-5.02,3.42.02,2.18,7.4,8.49,5.01-1.64,2.84-3.66,5.55-3,9-1.99.49-2.75-2.04-4.51-2.04-.31,0-5.25,2.84-5.49,3.04Z"/>
    <path class="cls-7" d="M60.91,78.4c1.15.73,4.26-.13,5.84.16.68,3.11-3.12,1.94-3.88,4.71-.52,1.9.86,3.48.88,5.28-4.73-2.36-5.26-2.37-9.99,0,1.21-4.77-1.67-6.22-3-9.99,4.32.61,6.52-.54,7.01-5,2.15.11,2.5,4.43,3.14,4.84Z"/>
    <path class="cls-7" d="M96.75,88.56c-4.11-3.24-5.81-1.24-9.99,0,.74-4.02,2.21-7.06-3-8.01.58-2.91,4.53-1.35,5.83-2.16.63-.39.93-4,2.67-4.83,1.31,5.05,3.73,4.24,7.48,6.5-3.18,2.21-3.33,4.83-2.99,8.5Z"/>
    <path class="cls-7" d="M25.74,108.56c1.3,1.23.3,6.82,7.01,5,.74,2.71-3.41,2.84-3.83,4.58-.3,1.23,1.38,3.72.83,5.41-5.05-3.92-4.91-2.08-9.98,0,1.74-5.41.39-6.14-3.01-9.99,1.61-.06,3.59.36,5.02-.49s1.9-6.47,3.97-4.52Z"/>
    <path class="cls-7" d="M142.74,56.56c1.36,1.34.26,6.77,7.01,5-1.34,3.77-4.2,5.22-3.01,9.99-.34.5-4.08-3.11-5.35-2.9-1.63.27-2.28,3.58-4.63,2.89,1.93-5.29-.16-5.69-2-9.99,1.35-.22,3.9.49,4.86-.14.66-.43.86-7.08,3.12-4.87Z"/>
    <path class="cls-7" d="M109.74,56.56c1.05.99.35,6.5,6.01,5,.59,2.33-2.45,2.88-2.77,4.61-.27,1.43,1.25,3.63.76,5.39-4.52-3.05-5.54-3.78-9.98,0-.31-1.93.46-4.56.01-6.3-.36-1.41-3.76-1.08-3.02-3.7,1.61-.05,3.58.37,5.01-.48s1.91-6.47,3.97-4.52Z"/>
    <path class="cls-7" d="M145.76,106.56c-2.66-5.36-5.34-1.96-8.99,0-.34-2.06,1.44-4.4,1.06-6.31-.21-1.04-3.97-1.74-4.07-3.68,6.47.95,5.47-.51,8.5-4.99,2.97,3.6,1.52,6.15,7.5,4.99.87,2.9-2.35,1.77-2.92,3.61s.35,2.93.93,4.39c.77,2.43-1.91,1.85-2,2Z"/>
    <path class="cls-7" d="M156.76,75.56c4.35-6.08,2.02,4.79,9,3-1.07,2.51-2.19,6.33-2,9-2.03.49-3.57-2.2-5.35-1.85-1.57.3-2.35,3.45-4.64,2.85.03-1.8,1.41-3.39.88-5.28-.76-2.77-4.56-1.59-3.89-4.71,5.57.84,4.34-.68,6-3Z"/>
    <path class="cls-7" d="M175.76,56.56c.4,3.69,3.49,5.93,7,6-.37.64-.61,1.38-1,2l-3.01,1.02c-.18.63,1.01.89,1.01.98.12,1.65-.07,3.35,0,5-5.16-2.16-4.86-3.82-9.99,0,1.64-4.61,1.46-6.41-3-9,.97-2.18,4.56-.24,5.87-1.13s-.06-6.14,3.13-4.87Z"/>
    <path class="cls-7" d="M25.74,74.56c.76.6.65,6.71,7.01,5.01-4.3,3.53-4.02,3.42-3.01,8.99-4.63-1.95-5.37-1.95-9.99,0,1.4-4.55.5-5.58-2.98-8.49,1.23-2.4,4.59-.89,5.83-1.64.71-.43.78-5.7,3.14-3.86Z"/>
    <path class="cls-7" d="M92.74,108.56c1.37,1.34.26,6.77,7.01,5,.94,2.83-2.27,1.73-2.91,3.61-.75,2.21.8,4.27.91,6.38-2.55.45-3.19-3.03-5.5-3.03s-2.95,3.48-5.49,3.03c-.32-2.06,1.43-4.42,1.07-6.31-.24-1.28-3.85-1.06-3.07-3.68,1.35-.22,3.9.49,4.86-.14.66-.43.86-7.08,3.12-4.87Z"/>
    <path class="cls-7" d="M109.74,91.56c1.05.99.35,6.5,6.01,5-1.32,3.96-3.93,4.1-2,8.99-4.94-2.05-5.52-2.19-9.99,1.01-.5-1.74,1.04-4,.77-5.39-.49-2.57-4.57-1.54-3.78-4.6,1.61-.05,3.58.37,5.02-.48s1.9-6.47,3.97-4.52Z"/>
    <path class="cls-7" d="M159.75,38.56c1.24,1.26-1.29,6.9,6.01,5.01.59,2.33-2.45,2.88-2.77,4.61-.27,1.43,1.25,3.63.76,5.39-.38.51-4.02-3.12-5.35-2.9-1.63.27-2.28,3.58-4.63,2.89-.32-1.77,1.25-3.69.86-5.31-.65-2.7-4.58-1.59-3.87-4.68,1.61-.05,3.58.37,5.02-.48,1.25-.74,2.03-6.49,3.97-4.52Z"/>
    <path class="cls-7" d="M52.76,116.56c-.92-1.1-2.72-.56-2-3,4.32.61,6.52-.53,7.01-5,3.73,2.69,1.55,6.45,7.98,5,.78,2.62-2.83,2.4-3.07,3.68-.37,1.93,1.4,4.25,1.06,6.32-3.59-2.11-6.04-4.78-8.99,0-.24-.19-1.66.3-1.96-.05-.66-.76,2.48-3.93-.04-6.95Z"/>
    <path class="cls-7" d="M82.76,96.57c.94,2.83-2.27,1.73-2.91,3.61-.75,2.22.8,4.27.91,6.38-5.34-2.37-5.66-4.14-10.99,0-.33-2.07,1.43-4.39,1.06-6.32-.24-1.28-3.85-1.06-3.07-3.68,5.98,1.19,4.81-1.94,7.98-5,.49,4.47,2.69,5.61,7.01,5Z"/>
    <path class="cls-7" d="M126.74,108.56c.23.22.43,2.98,1.48,4.02,1.55,1.55,7.83.3,5.53,2.95-1.51,1.74-5.5.3-3,7.01-2,.48-2.71-2.01-4.49-2.01-1.41,0-5.16,3.44-5.5,3.01-.34-2.06,1.44-4.4,1.06-6.31-.21-1.04-3.97-1.74-4.07-3.68,1.61-.06,3.59.36,5.02-.49s1.91-6.47,3.97-4.52Z"/>
    <path class="cls-5" d="M128.76,147.56l3.99-1.49c-4.64-.56-1.38-15.35-.55-16.56.73-1.06,2.81-1.26,3.94-.98,1,.25.51,1.95.61,2.04-6.69,1.38.88,3.6,1.07,4.68.21,1.2-.66,3.14-.75,4.68-.04.67.7,1.38.68,1.63-.2,2.71-3.17,4.19-4,7,1.57.18,2.33-.67,2.01,1.49.07,1.06-1.54.27-2.01.51.1-.63-.16-1.48,0-2-2.13-.25-2.9.67-5-1Z"/>
    <path class="cls-5" d="M169.76,71.56c-1.03,2.9-2.93,4.5-4,7-6.98,1.79-4.65-9.08-9-3,.34-5.78,5.22-2.94,8.45-8.05,1.4-2.22.99-3.7,1.55-4.95,4.46,2.59,4.64,4.39,3,9Z"/>
    <path class="cls-5" d="M83.76,43.56c-.91-2.79-1.32-6.92,1.99-8.5,5.83-2.77,5.58.16,7.01,3.5-3.57,2.44-3.47,6.3-9,5Z"/>
    <path class="cls-5" d="M100.76,132.56c4.75,2.37,3.62,4.54,3,9-2.55-1-8.42-5.79-5.01-8.52.59-.47,1.56-.25,2.01-.48Z"/>
    <path class="cls-5" d="M46.76,35.56c.09.22,1.55.15,1,1.99-4.79,1.46-5.56-1.99-9-1.99.31-.54-.58-1.95.51-2.01,2.68-.16,4.73,2.4,7.49,2.01Z"/>
    <path class="cls-5" d="M35.76,34.56c.29.89,1.18,1.04,2,1,.35,3.9-6.57,4.48-5,.5.53-1.35,2.7-1.23,3-1.5Z"/>
    <path class="cls-5" d="M69.76,138.56c-1.39-1.79-4.24-2.53-3-6,2.24,1.36,5.45,3.64,3,6Z"/>
    <path class="cls-5" d="M26.76,146.56c7.52,2.35,12.01,1.16,3,7,0-.06-1.07-.31-.58-.97,1.02-1.35,4.19-1.41,3.57-4.03-3.19.15-4.15.54-6-2Z"/>
    <path class="cls-5" d="M115.76,25.56c-2,.03-3.53.57-5-1,1.65.16,4.36-.78,5,1Z"/>
    <path class="cls-5" d="M64.76,148.56c-1.77-.06-1.63.01-3-1l3,1Z"/>
    <path class="cls-5" d="M138.76,130.56c.15-.09,1.74-2.56,2-3,.02,1.34-.54,2.75-2,3Z"/>
    <path class="cls-5" d="M179.76,66.56c0-.08-1.19-.35-1.01-.98l3.01-1.02c-.55.88-.89,1.66-2,2Z"/>
    <path class="cls-5" d="M86.76,148.56c-.62.06-1.38.05-2,0l1.21-.69.79.69Z"/>
    <path class="cls-5" d="M36.76,31.56c-1.18-.25-1.42-1.39-2-2,.89.35,1.85,1.02,2,2Z"/>
    <path class="cls-7" d="M43.9,96.41c1.05.66,3.46-.06,4.85.16.76,2.61-2.69,2.32-3.03,3.7-.39,1.61-.06,4.39,1.01,5.8-1.76.39-3.83-2.17-5.49-2.16-2.02.02-3.22,3.05-5.49,2.64,2.08-6.15,1.14-6.07-3-9.98,5.83.76,6.12-.35,8.5-4.99,1.67.65,2.08,4.47,2.65,4.83Z"/>
  </g>
</svg>