<?xml version="1.0" encoding="UTF-8"?>
<svg id="Layer_2" data-name="Layer 2" xmlns="http://www.w3.org/2000/svg" viewBox="0 0 581.04 580.86">
  <defs>
    <style>
      .cls-1 {
        fill: #f4f4f4;
      }
    </style>
  </defs>
  <g id="Layer_2-2" data-name="Layer 2">
    <path class="cls-1" d="M452.06,219.15l-245.88,245.03c-13.17,7.64-30.99-12.47-41-21.53-9.21-8.34-50.77-50.64-52.25-59.62-.49-2.98.41-5.42,2.09-7.81,74.4-79.04,155.8-151.72,231-229.87,4.32-4.49,11.57-12.67,13.64-18.58H10.55c-.46,0-5.67-5.21-6.33-6.56C-1.06,109.52-.31,42.34.8,26.78,1.43,17.8,2.2,2.03,12.75.06l513.43-.06c31.47,5.64,52.13,29.47,54.86,61.16l-.13,504.91c-.76,4.47-6.44,9.68-10.57,10.91-5.11,1.52-22.49,2.82-29.03,3.19-21.67,1.23-53.92.99-75.17-2.35-3.63-.57-14.08-7.01-14.08-9.56V219.15Z"/>
  </g>
</svg>