<?xml version="1.0" encoding="UTF-8"?>
<svg id="Layer_2" data-name="Layer 2" xmlns="http://www.w3.org/2000/svg" viewBox="0 0 1032.85 1034.8">
  <defs>
    <style>
      .cls-1 {
        fill: #f4f4f4;
      }
    </style>
  </defs>
  <g id="Layer_2-2" data-name="Layer 2">
    <path class="cls-1" d="M580.97,361.56c77.21-75.64,153.69-152.13,229.94-228.75,8.85-8.89,13.21-23.26,29.92-17.15,4.13,1.51,22.22,18.07,27.01,22.41,9.44,8.55,50.7,50.2,52.25,59.62.9,5.46-7.33,15.05-11.16,19.18-70.77,76.16-163,148.86-229.19,227.35-2.53,3-5.13,5.92-6.38,9.73h349.13c.81,0,6.33,6.06,7.01,8.03,4.49,13.03,4.48,97.71,0,110.7-.68,1.97-6.2,8.03-7.01,8.03h-349.13l3.21,6.46,241.2,242.19c1.28,3.07,2.98,6.25,2.25,9.73-1.51,7.2-43.84,50-52.16,57.5-9.92,8.94-29.84,30.83-42.08,20.47l-175-175.19c-64.89-78.32,13.38-229.46-57.88-300.91-71.96-72.15-224.12,5.68-300.94-57.86-52.49-57.54-115.18-109.53-167.85-166.24-3.18-3.43-11.38-13.43-11.36-17.52.06-11.73,57.63-67.18,69.74-76.21,5.76-4.29,12.61-10.64,20.44-7.76l249.15,246.19V14.59c0-2.79,7.35-9.83,10.63-10.85,5.4-1.69,26.04-2.85,33.31-3.21,20.64-1.02,50.61-.69,70.88,2.37,4.81.73,14.08,7.25,14.08,11.7v346.98Z"/>
    <path class="cls-1" d="M452.06,673.09l-245.88,245.03c-13.17,7.64-30.99-12.47-41-21.53-9.21-8.34-50.77-50.64-52.25-59.62-.49-2.98.41-5.42,2.09-7.81,74.4-79.04,155.8-151.72,231-229.87,4.32-4.49,11.57-12.67,13.64-18.58H10.55c-.46,0-5.67-5.21-6.33-6.56-5.28-10.69-4.53-77.86-3.42-93.43.64-8.98,1.41-24.74,11.96-26.71l513.43-.06c31.47,5.64,52.13,29.47,54.86,61.16l-.13,504.91c-.76,4.47-6.44,9.68-10.57,10.91-5.11,1.52-22.49,2.82-29.03,3.19-21.67,1.23-53.92.99-75.17-2.35-3.63-.57-14.08-7.01-14.08-9.56v-349.13Z"/>
  </g>
</svg>