<?xml version="1.0" encoding="UTF-8"?>
<svg id="Layer_2" data-name="Layer 2" xmlns="http://www.w3.org/2000/svg" viewBox="0 0 345.84 313.4">
  <defs>
    <style>
      .cls-1 {
        fill: #063188;
      }

      .cls-2 {
        fill: #facf10;
      }

      .cls-3 {
        fill: #f9f7f7;
      }

      .cls-4 {
        fill: #099237;
      }

      .cls-5 {
        fill: #e8ecf3;
      }

      .cls-6 {
        fill: #089237;
      }

      .cls-7 {
        fill: #063085;
      }
    </style>
  </defs>
  <g id="Layer_3" data-name="Layer 3">
    <path class="cls-6" d="M345.09,170.1c.12,26.58,1.6,56.33.04,82.54-2,33.62-20.67,57.12-55.5,59.5-30.17,2.06-64.36-.34-95.08-.08-26.8.23-54.16,1.15-80.92,1.09-45.42-.11-107,7.6-111.58-54.51-2.16-29.31-.77-61.91-.96-91.54l172.48,116.99,171.52-113.99Z"/>
    <path class="cls-4" d="M345.09,141.1L173.59,29.11,1.09,139.1C1.23,78.27-15.04-3.37,73.55,1.06c68.3,2.65,139.07-3.38,207.09,0,38.39,1.9,60.8,18.71,63.44,58.56,1.69,25.47.73,55.56,1.01,81.49Z"/>
    <path class="cls-2" d="M345.09,141.1c.11,9.72-.04,19.29,0,29l-171.52,113.99L1.09,167.1c-.06-9.32-.02-18.68,0-28L173.59,29.11l171.5,111.99ZM93.09,122.1c-2.52,5.98-5.11,14.59-6,21-13.45,96.58,132.21,135.62,168,40,3.4-9.08,3.96-9.54,5-20,9.7-97.74-130.95-126.46-167-41Z"/>
    <path class="cls-1" d="M255.09,183.1c-35.79,95.62-181.45,56.58-168-40,59.15-14.31,121.37,2.17,168,40ZM113.34,168.85c-1.12-.93-.94-4.36-3.24-4.74.9,5.1-6.59,5.46-7.01,6.01-1.65,2.16,3.35,2.34,3.78,4.59.27,1.39-1.27,3.65-.77,5.39,4.15-4.34,5.11-2.61,9.98-1.01-1.73-6.25-.92-4.93,3-8.98-1.49-.27-4.71-.41-5.75-1.26ZM187.25,171.95c-.59-.36-.99-4.16-2.66-4.82-2.33,3.82-1.99,5.9-7.5,4.98,1.33,3.77,4.21,5.22,3,9.99,4.16-1.82,5.78-3.08,9.99,0-1.38-4.57-.52-5.56,2.99-8.5-1.24-2.39-4.54-.88-5.82-1.66ZM136.08,181.11c-2.19-2.22-2.39,4.2-3.2,4.8s-4.4.57-5.78,1.21c2.83,3.56,4.74,3.98,3,8.98,5.09-2.44,5.94-1.62,10.99,0-3.02-4.9-.97-5.25,2-8.98-7.88.39-5.47-4.44-7.01-6.01ZM172.09,190.11c-1.68.01-3.41.25-5.01-.5-2.36-1.11-1.91-4.81-3.98-5.5-.63,3.97-2.71,6.59-7.01,6-.75,2.62,2.75,2.36,3.05,3.7.48,2.12-.97,4.23-1.05,6.29,4.34-2.01,6.63-3.12,10.99,0,.35-1.79-1.27-3.65-.86-5.31.67-2.72,4.73-1.69,3.87-4.68ZM229.09,198.09c-2.21-4.76-1.26-4.98,1.93-7.56,3.02-2.44-3.73-2.27-4.92-2.94-1.43-.81-1.43-4.23-4-3.49.33,4.92-3.14,4.14-7,4.01-.65,3.13,2.97,1.84,3.81,4.68.49,1.66.12,3.59.2,5.31,4.11-3.25,5.81-1.23,9.99,0ZM200.08,199.11c-4.43,1.01-2.26,6.78-8.99,5,1.34,3.77,4.2,5.22,3.01,9.99,4.11-3.24,5.81-1.24,9.99,0,.37-1.74-1.33-3.83-.9-5.34.52-1.84,4.5-1.81,3.9-4.65-5.25.36-6.83.78-7-5Z"/>
    <path class="cls-7" d="M260.09,163.1c-47.43-35.72-108-51.59-167-41,36.05-85.46,176.7-56.74,167,41ZM230.25,121.94c-.72-.44-1.47-5-2.65-5.83-2.43,4.09-2.68,6.96-8.5,6.01,2.32,3.09,4.96,4.45,4,8.99,1.93.54,2.62-2,4.33-1.85,2,.18,3.36,3.22,5.66,2.85-.08-2.06-1.53-4.18-1.05-6.29.3-1.34,3.83-1.09,3.05-3.7-1.4-.2-3.74.5-4.84-.17Z"/>
    <path class="cls-3" d="M260.09,163.1c-1.04,10.46-1.6,10.92-5,20-46.63-37.83-108.85-54.31-168-40,.89-6.41,3.48-15.02,6-21,59-10.59,119.57,5.28,167,41Z"/>
    <path class="cls-5" d="M172.09,190.11c.86,2.99-3.2,1.96-3.87,4.68-.41,1.66,1.21,3.52.86,5.31-4.36-3.13-6.64-2.01-10.99,0,.08-2.06,1.53-4.17,1.05-6.29-.3-1.34-3.8-1.08-3.05-3.7,4.3.59,6.38-2.03,7.01-6,2.08.69,1.62,4.39,3.98,5.5,1.6.75,3.33.51,5.01.5Z"/>
    <path class="cls-5" d="M200.08,199.11c.18,5.78,1.75,5.37,7,5,.6,2.83-3.38,2.81-3.9,4.65-.43,1.51,1.27,3.6.9,5.34-4.17-1.24-5.88-3.23-9.99,0,1.2-4.78-1.67-6.22-3.01-9.99,6.73,1.78,4.55-3.99,8.99-5Z"/>
    <path class="cls-5" d="M187.25,171.95c1.28.77,4.59-.74,5.82,1.66-3.51,2.94-4.37,3.93-2.99,8.5-4.21-3.09-5.82-1.82-9.99,0,1.21-4.77-1.67-6.22-3-9.99,5.5.92,5.16-1.16,7.5-4.98,1.67.66,2.07,4.47,2.66,4.82Z"/>
    <path class="cls-5" d="M136.08,181.11c1.55,1.57-.86,6.4,7.01,6.01-2.97,3.72-5.02,4.08-2,8.98-5.05-1.62-5.9-2.43-10.99,0,1.74-5-.18-5.43-3-8.98,1.38-.64,4.97-.61,5.78-1.21s1.01-7.02,3.2-4.8Z"/>
    <path class="cls-5" d="M229.09,198.09c-4.18-1.22-5.88-3.24-9.99,0-.08-1.72.29-3.65-.2-5.31-.84-2.85-4.46-1.55-3.81-4.68,3.87.14,7.34.91,7-4.01,2.58-.74,2.57,2.67,4,3.49,1.19.68,7.94.51,4.92,2.94-3.2,2.58-4.14,2.8-1.93,7.56Z"/>
    <path class="cls-5" d="M113.34,168.85c1.04.86,4.25.99,5.75,1.26-3.92,4.05-4.73,2.73-3,8.98-4.88-1.61-5.83-3.34-9.98,1.01-.5-1.74,1.04-4,.77-5.39-.44-2.25-5.43-2.43-3.78-4.59.42-.55,7.91-.91,7.01-6.01,2.3.38,2.12,3.82,3.24,4.74Z"/>
    <path class="cls-5" d="M230.25,121.94c1.1.67,3.44-.03,4.84.17.78,2.61-2.75,2.35-3.05,3.7-.47,2.11.97,4.24,1.05,6.29-2.3.37-3.67-2.68-5.66-2.85-1.71-.15-2.39,2.4-4.33,1.85.96-4.54-1.68-5.89-4-8.99,5.82.96,6.07-1.92,8.5-6.01,1.18.83,1.94,5.39,2.65,5.83Z"/>
  </g>
</svg>