<?xml version="1.0" encoding="UTF-8"?>
<svg id="Layer_2" data-name="Layer 2" xmlns="http://www.w3.org/2000/svg" viewBox="0 0 348.13 313.13">
  <defs>
    <style>
      .cls-1 {
        fill: #ce0827;
      }

      .cls-2 {
        fill: #fdc203;
      }
    </style>
  </defs>
  <g id="Layer_4" data-name="Layer 4">
    <path class="cls-2" d="M347.54,224.55L1.54,225.55C.3,178.78-.63,130.6.54,83.55l347-1c.98,46.83.58,95.12,0,142ZM53.54,113.55v14.5c0,2.38,5.34,4.7,5.84,6.16.97,2.85-.35,8.11.16,11.34h-14v51h82v-51h-14c.64-3.35-.86-9.57-.06-12.38.11-.4,6.06-2.03,6.06-5.12v-14.5c-5.49.7-17.32-3.04-13,5.99-7.82,2.59-3.79-5.75-5.57-6.01-1.49-.22-11.99-.43-12.43.01-1.18,1.2,2.86,7.86-3.99,6.01-.34-.33.3-6,0-6h-14c-.35,0,.26,6.07-.01,7-6.49-.09-3.02-6.01-3.99-7-.45-.47-10.99.35-13,0Z"/>
    <path class="cls-1" d="M347.54,224.55c-.54,43.95-1.66,81.32-55.45,87.05-76.68-3.78-157.94,4.87-234.09,0-18.2-1.16-35.31-7.69-45.87-23.13-13.79-20.18-9.98-39.92-10.59-62.91l346-1Z"/>
    <path class="cls-1" d="M347.54,82.55L.54,83.55C1.6,40.79,6.43,4.73,57.99,1.51c76.54-4.79,158.03,3.72,235.09,0,49.94,5.13,53.58,39.15,54.46,81.04Z"/>
    <path class="cls-1" d="M53.54,113.55c2.01.34,12.55-.47,13,0,.97.99-2.5,6.91,3.99,7,.27-.93-.34-7,.01-7h14c.3,0-.33,5.68,0,6,6.85,1.85,2.81-4.81,3.99-6.01.44-.44,10.94-.23,12.43-.01,1.78.26-2.25,8.6,5.57,6.01-4.31-9.03,7.51-5.29,13-5.99v14.5c0,3.08-5.95,4.72-6.06,5.12-.8,2.82.7,9.04.06,12.38h14v51H45.54v-51h14c-.51-3.23.81-8.49-.16-11.34-.5-1.46-5.84-3.78-5.84-6.16v-14.5ZM84.54,146.55c-.98.32-2.17-1-2.5-1h-19c-.11,0-1.5,1.39-1.5,1.5v32.5h23v-33ZM111.54,146.55h-23v32h22v-30.5c0-.21,1.5-1.14,1-1.5Z"/>
    <path class="cls-2" d="M84.54,146.55v33h-23v-32.5c0-.11,1.39-1.5,1.5-1.5h19c.33,0,1.52,1.32,2.5,1Z"/>
    <path class="cls-2" d="M111.54,146.55c.5.36-1,1.29-1,1.5v30.5h-22v-32h23Z"/>
  </g>
</svg>